<svg width="24" height="24" viewBox="0 0 24 24" fill="none" xmlns="http://www.w3.org/2000/svg">
<g clip-path="url(#clip0_90_377)">
<path d="M12 3C10.22 3 8.47991 3.52784 6.99987 4.51677C5.51983 5.50571 4.36628 6.91131 3.68509 8.55585C3.0039 10.2004 2.82567 12.01 3.17294 13.7558C3.5202 15.5016 4.37737 17.1053 5.63604 18.364C6.89471 19.6226 8.49836 20.4798 10.2442 20.8271C11.99 21.1743 13.7996 20.9961 15.4442 20.3149C17.0887 19.6337 18.4943 18.4802 19.4832 17.0001C20.4722 15.5201 21 13.78 21 12C21 9.61305 20.0518 7.32387 18.364 5.63604C16.6761 3.94821 14.387 3 12 3ZM19.7143 11.3571H15.8571C15.7821 8.98955 15.1687 6.67017 14.0636 4.575C15.5862 4.99151 16.9444 5.86511 17.9549 7.07791C18.9654 8.29071 19.5795 9.78432 19.7143 11.3571ZM12 19.7143C11.8566 19.7239 11.7127 19.7239 11.5693 19.7143C10.2375 17.5904 9.49833 15.1488 9.42857 12.6429H14.5714C14.5075 15.147 13.775 17.5885 12.45 19.7143C12.3002 19.7248 12.1498 19.7248 12 19.7143ZM9.42857 11.3571C9.49253 8.853 10.225 6.41153 11.55 4.28571C11.8362 4.25355 12.1252 4.25355 12.4114 4.28571C13.75 6.40765 14.4959 8.8494 14.5714 11.3571H9.42857ZM9.91715 4.575C8.81869 6.67177 8.21194 8.99107 8.14286 11.3571H4.28572C4.42053 9.78432 5.03461 8.29071 6.04508 7.07791C7.05556 5.86511 8.41378 4.99151 9.93643 4.575H9.91715ZM4.31786 12.6429H8.175C8.24209 15.0084 8.84664 17.3277 9.94286 19.425C8.42499 19.004 7.07236 18.1285 6.06679 16.916C5.06122 15.7036 4.4509 14.2124 4.31786 12.6429ZM14.0636 19.425C15.1687 17.3298 15.7821 15.0104 15.8571 12.6429H19.7143C19.5795 14.2157 18.9654 15.7093 17.9549 16.9221C16.9444 18.1349 15.5862 19.0085 14.0636 19.425Z" fill="#212121"/>
</g>
<defs>
<clipPath id="clip0_90_377">
<rect width="24" height="24" fill="white"/>
</clipPath>
</defs>
</svg>
