<svg width="24" height="24" viewBox="0 0 24 24" fill="none" xmlns="http://www.w3.org/2000/svg">
<mask id="path-1-outside-1_90_349" maskUnits="userSpaceOnUse" x="9.00037" y="9.50049" width="5" height="5" fill="black">
<rect fill="white" x="9.00037" y="9.50049" width="5" height="5"/>
<path fill-rule="evenodd" clip-rule="evenodd" d="M11.4996 11.9317C11.4814 11.9317 11.4639 11.939 11.4511 11.952C11.4383 11.9649 11.4313 11.9825 11.4315 12.0007C11.4316 12.0287 11.4485 12.0539 11.4744 12.0646C11.5003 12.0752 11.5301 12.0691 11.5497 12.0491C11.5694 12.0292 11.5751 11.9993 11.5641 11.9736C11.5531 11.9478 11.5276 11.9313 11.4996 11.9317Z"/>
</mask>
<path d="M11.4994 13.4317C12.3278 13.4318 12.9995 12.7603 12.9996 11.9318C12.9997 11.1034 12.3282 10.4318 11.4997 10.4317L11.4994 13.4317ZM11.4315 12.0007L12.9315 12.0005C12.9315 11.9932 12.9315 11.9859 12.9314 11.9786L11.4315 12.0007ZM11.4744 12.0646L10.9055 13.4525L10.9055 13.4525L11.4744 12.0646ZM11.5641 11.9736L10.1846 12.5627L10.1846 12.5627L11.5641 11.9736ZM11.4778 10.4318C10.6495 10.4438 9.98773 11.1251 9.99973 11.9534C10.0117 12.7818 10.693 13.4435 11.5213 13.4315L11.4778 10.4318ZM11.4997 10.4317C11.0798 10.4316 10.6775 10.6 10.3827 10.8991L12.5195 13.0048C12.2503 13.278 11.8829 13.4317 11.4994 13.4317L11.4997 10.4317ZM10.3827 10.8991C10.0881 11.1981 9.92553 11.6028 9.93171 12.0228L12.9314 11.9786C12.937 12.3621 12.7886 12.7318 12.5195 13.0048L10.3827 10.8991ZM9.93155 12.0009C9.93161 12.6375 10.3163 13.211 10.9055 13.4525L12.0433 10.6766C12.5806 10.8969 12.9315 11.42 12.9315 12.0005L9.93155 12.0009ZM10.9055 13.4525C11.4946 13.694 12.1712 13.5555 12.6181 13.102L10.4814 10.9963C10.8889 10.5827 11.506 10.4564 12.0433 10.6766L10.9055 13.4525ZM12.6181 13.102C13.065 12.6486 13.1936 11.97 12.9435 11.3845L10.1846 12.5627C9.95654 12.0287 10.0738 11.4098 10.4814 10.9963L12.6181 13.102ZM12.9435 11.3845C12.6935 10.799 12.1144 10.4226 11.4778 10.4318L11.5213 13.4315C10.9407 13.4399 10.4126 13.0967 10.1846 12.5627L12.9435 11.3845Z" fill="#212121" mask="url(#path-1-outside-1_90_349)"/>
<mask id="path-3-outside-2_90_349" maskUnits="userSpaceOnUse" x="9.00037" y="3" width="5" height="5" fill="black">
<rect fill="white" x="9.00037" y="3" width="5" height="5"/>
<path fill-rule="evenodd" clip-rule="evenodd" d="M11.4996 5.43119C11.4814 5.43118 11.4639 5.43849 11.4511 5.45146C11.4383 5.46444 11.4313 5.482 11.4315 5.50021C11.4316 5.52822 11.4485 5.55346 11.4744 5.56408C11.5003 5.5747 11.5301 5.56861 11.5497 5.54866C11.5694 5.52871 11.5751 5.49886 11.5641 5.4731C11.5531 5.44734 11.5276 5.43078 11.4996 5.43119Z"/>
</mask>
<path d="M11.4994 6.93119C12.3278 6.93128 12.9995 6.25978 12.9996 5.43135C12.9997 4.60292 12.3282 3.93128 11.4997 3.93119L11.4994 6.93119ZM11.4315 5.50021L12.9315 5.50005C12.9315 5.49275 12.9315 5.48544 12.9314 5.47814L11.4315 5.50021ZM11.4744 5.56408L10.9055 6.95201L10.9055 6.95201L11.4744 5.56408ZM11.5641 5.4731L10.1846 6.06219L10.1846 6.06219L11.5641 5.4731ZM11.4778 3.93134C10.6495 3.94335 9.98773 4.62459 9.99973 5.45293C10.0117 6.28127 10.693 6.94304 11.5213 6.93103L11.4778 3.93134ZM11.4997 3.93119C11.0798 3.93114 10.6775 4.09951 10.3827 4.39857L12.5195 6.50435C12.2503 6.77747 11.8829 6.93123 11.4994 6.93119L11.4997 3.93119ZM10.3827 4.39857C10.0881 4.69759 9.92553 5.10235 9.93171 5.52228L12.9314 5.47814C12.937 5.86165 12.7886 6.23129 12.5195 6.50435L10.3827 4.39857ZM9.93155 5.50036C9.93161 6.13696 10.3163 6.71052 10.9055 6.95201L12.0433 4.17615C12.5806 4.39639 12.9315 4.91949 12.9315 5.50005L9.93155 5.50036ZM10.9055 6.95201C11.4946 7.19348 12.1712 7.05502 12.6181 6.60155L10.4814 4.49577C10.8889 4.08221 11.506 3.95593 12.0433 4.17614L10.9055 6.95201ZM12.6181 6.60155C13.065 6.14809 13.1936 5.46952 12.9435 4.88401L10.1846 6.06219C9.95654 5.52819 10.0738 4.90933 10.4814 4.49577L12.6181 6.60155ZM12.9435 4.88401C12.6935 4.29849 12.1144 3.92212 11.4778 3.93134L11.5213 6.93103C10.9407 6.93944 10.4126 6.59618 10.1846 6.06219L12.9435 4.88401Z" fill="#212121" mask="url(#path-3-outside-2_90_349)"/>
<mask id="path-5-outside-3_90_349" maskUnits="userSpaceOnUse" x="9.00037" y="16.0012" width="5" height="5" fill="black">
<rect fill="white" x="9.00037" y="16.0012" width="5" height="5"/>
<path fill-rule="evenodd" clip-rule="evenodd" d="M11.4996 18.4324C11.4814 18.4324 11.4639 18.4397 11.4511 18.4527C11.4383 18.4657 11.4313 18.4832 11.4315 18.5014C11.4316 18.5294 11.4485 18.5547 11.4744 18.5653C11.5003 18.5759 11.5301 18.5698 11.5497 18.5499C11.5694 18.5299 11.5751 18.5001 11.5641 18.4743C11.5531 18.4486 11.5276 18.432 11.4996 18.4324Z"/>
</mask>
<path d="M11.4994 19.9324C12.3278 19.9325 12.9995 19.261 12.9996 18.4326C12.9997 17.6041 12.3282 16.9325 11.4997 16.9324L11.4994 19.9324ZM11.4315 18.5014L12.9315 18.5013C12.9315 18.494 12.9315 18.4867 12.9314 18.4794L11.4315 18.5014ZM11.4744 18.5653L10.9055 19.9532L10.9055 19.9532L11.4744 18.5653ZM11.5641 18.4743L10.1846 19.0634L10.1846 19.0634L11.5641 18.4743ZM11.4778 16.9326C10.6495 16.9446 9.98773 17.6258 9.99973 18.4541C10.0117 19.2825 10.693 19.9443 11.5213 19.9322L11.4778 16.9326ZM11.4997 16.9324C11.0798 16.9324 10.6775 17.1007 10.3827 17.3998L12.5195 19.5056C12.2503 19.7787 11.8829 19.9324 11.4994 19.9324L11.4997 16.9324ZM10.3827 17.3998C10.0881 17.6988 9.92553 18.1036 9.93171 18.5235L12.9314 18.4794C12.937 18.8629 12.7886 19.2325 12.5195 19.5056L10.3827 17.3998ZM9.93155 18.5016C9.93161 19.1382 10.3163 19.7117 10.9055 19.9532L12.0433 17.1774C12.5806 17.3976 12.9315 17.9207 12.9315 18.5013L9.93155 18.5016ZM10.9055 19.9532C11.4946 20.1947 12.1712 20.0562 12.6181 19.6028L10.4814 17.497C10.8889 17.0834 11.506 16.9571 12.0433 17.1774L10.9055 19.9532ZM12.6181 19.6028C13.065 19.1493 13.1936 18.4707 12.9435 17.8852L10.1846 19.0634C9.95654 18.5294 10.0738 17.9106 10.4814 17.497L12.6181 19.6028ZM12.9435 17.8852C12.6935 17.2997 12.1144 16.9233 11.4778 16.9326L11.5213 19.9322C10.9407 19.9407 10.4126 19.5974 10.1846 19.0634L12.9435 17.8852Z" fill="#212121" mask="url(#path-5-outside-3_90_349)"/>
<mask id="path-7-outside-4_90_349" maskUnits="userSpaceOnUse" x="15.0007" y="9.50073" width="5" height="5" fill="black">
<rect fill="white" x="15.0007" y="9.50073" width="5" height="5"/>
<path fill-rule="evenodd" clip-rule="evenodd" d="M17.5009 11.9319C17.4628 11.9319 17.4319 11.9628 17.4319 12.0009C17.4319 12.0391 17.4628 12.07 17.5009 12.07C17.5391 12.07 17.57 12.0391 17.57 12.0009C17.57 11.9628 17.5391 11.9319 17.5009 11.9319Z"/>
</mask>
<path d="M17.5009 13.4319C18.3294 13.4319 19.0009 12.7603 19.0009 11.9319C19.0009 11.1035 18.3294 10.4319 17.5009 10.4319V13.4319ZM17.5009 10.4319C16.6725 10.4319 16.0009 11.1035 16.0009 11.9319C16.0009 12.7603 16.6725 13.4319 17.5009 13.4319V10.4319ZM17.5009 10.4319C16.6344 10.4319 15.9319 11.1344 15.9319 12.0009H18.9319C18.9319 12.7912 18.2912 13.4319 17.5009 13.4319V10.4319ZM15.9319 12.0009C15.9319 12.8675 16.6344 13.57 17.5009 13.57V10.57C18.2912 10.57 18.9319 11.2106 18.9319 12.0009H15.9319ZM17.5009 13.57C18.3675 13.57 19.07 12.8675 19.07 12.0009H16.07C16.07 11.2106 16.7106 10.57 17.5009 10.57V13.57ZM19.07 12.0009C19.07 11.1344 18.3675 10.4319 17.5009 10.4319V13.4319C16.7106 13.4319 16.07 12.7912 16.07 12.0009H19.07Z" fill="#212121" mask="url(#path-7-outside-4_90_349)"/>
<mask id="path-9-outside-5_90_349" maskUnits="userSpaceOnUse" x="15.0007" y="3" width="5" height="5" fill="black">
<rect fill="white" x="15.0007" y="3" width="5" height="5"/>
<path fill-rule="evenodd" clip-rule="evenodd" d="M17.5009 5.43118C17.4628 5.43118 17.4319 5.46208 17.4319 5.50021C17.4319 5.53833 17.4628 5.56924 17.5009 5.56924C17.5391 5.56924 17.57 5.53833 17.57 5.50021C17.57 5.46208 17.5391 5.43118 17.5009 5.43118Z"/>
</mask>
<path d="M17.5009 6.93118C18.3294 6.93118 19.0009 6.25961 19.0009 5.43118C19.0009 4.60275 18.3294 3.93118 17.5009 3.93118V6.93118ZM17.5009 3.93118C16.6725 3.93118 16.0009 4.60275 16.0009 5.43118C16.0009 6.25961 16.6725 6.93118 17.5009 6.93118V3.93118ZM17.5009 3.93118C16.6344 3.93118 15.9319 4.63366 15.9319 5.50021H18.9319C18.9319 6.29051 18.2912 6.93118 17.5009 6.93118V3.93118ZM15.9319 5.50021C15.9319 6.36676 16.6344 7.06924 17.5009 7.06924V4.06924C18.2912 4.06924 18.9319 4.70991 18.9319 5.50021H15.9319ZM17.5009 7.06924C18.3675 7.06924 19.07 6.36676 19.07 5.50021H16.07C16.07 4.7099 16.7106 4.06924 17.5009 4.06924V7.06924ZM19.07 5.50021C19.07 4.63366 18.3675 3.93118 17.5009 3.93118V6.93118C16.7106 6.93118 16.07 6.29051 16.07 5.50021H19.07Z" fill="#212121" mask="url(#path-9-outside-5_90_349)"/>
<mask id="path-11-outside-6_90_349" maskUnits="userSpaceOnUse" x="15.0007" y="16.0012" width="5" height="5" fill="black">
<rect fill="white" x="15.0007" y="16.0012" width="5" height="5"/>
<path fill-rule="evenodd" clip-rule="evenodd" d="M17.5009 18.4324C17.4628 18.4324 17.4319 18.4633 17.4319 18.5014C17.4319 18.5396 17.4628 18.5705 17.5009 18.5705C17.5391 18.5705 17.57 18.5396 17.57 18.5014C17.57 18.4633 17.5391 18.4324 17.5009 18.4324Z"/>
</mask>
<path d="M17.5009 19.9324C18.3294 19.9324 19.0009 19.2608 19.0009 18.4324C19.0009 17.604 18.3294 16.9324 17.5009 16.9324V19.9324ZM17.5009 16.9324C16.6725 16.9324 16.0009 17.604 16.0009 18.4324C16.0009 19.2608 16.6725 19.9324 17.5009 19.9324V16.9324ZM17.5009 16.9324C16.6344 16.9324 15.9319 17.6349 15.9319 18.5014H18.9319C18.9319 19.2917 18.2912 19.9324 17.5009 19.9324V16.9324ZM15.9319 18.5014C15.9319 19.368 16.6344 20.0705 17.5009 20.0705V17.0705C18.2912 17.0705 18.9319 17.7111 18.9319 18.5014H15.9319ZM17.5009 20.0705C18.3675 20.0705 19.07 19.368 19.07 18.5014H16.07C16.07 17.7111 16.7106 17.0705 17.5009 17.0705V20.0705ZM19.07 18.5014C19.07 17.6349 18.3675 16.9324 17.5009 16.9324V19.9324C16.7106 19.9324 16.07 19.2917 16.07 18.5014H19.07Z" fill="#212121" mask="url(#path-11-outside-6_90_349)"/>
<mask id="path-13-outside-7_90_349" maskUnits="userSpaceOnUse" x="3" y="9.50049" width="5" height="5" fill="black">
<rect fill="white" x="3" y="9.50049" width="5" height="5"/>
<path fill-rule="evenodd" clip-rule="evenodd" d="M5.49921 11.9317C5.48099 11.9317 5.46354 11.939 5.45075 11.952C5.43796 11.9649 5.43091 11.9825 5.43118 12.0007C5.43119 12.0287 5.44811 12.0539 5.47403 12.0646C5.49995 12.0752 5.52972 12.0691 5.54938 12.0491C5.56904 12.0292 5.57469 11.9993 5.56369 11.9736C5.55269 11.9478 5.52722 11.9313 5.49921 11.9317Z"/>
</mask>
<path d="M5.49905 13.4317C6.32747 13.4318 6.99912 12.7603 6.99921 11.9318C6.9993 11.1034 6.3278 10.4318 5.49938 10.4317L5.49905 13.4317ZM5.45075 11.952L4.38238 10.8991L4.38238 10.8991L5.45075 11.952ZM5.43118 12.0007L6.93118 12.0005C6.93118 11.9932 6.93113 11.9859 6.93102 11.9786L5.43118 12.0007ZM5.47403 12.0646L4.90514 13.4525L4.90514 13.4525L5.47403 12.0646ZM5.56369 11.9736L4.18421 12.5627L4.18421 12.5627L5.56369 11.9736ZM5.47747 10.4318C4.64913 10.4438 3.98736 11.1251 3.99937 11.9534C4.01138 12.7818 4.69261 13.4435 5.52095 13.4315L5.47747 10.4318ZM5.49938 10.4317C5.07948 10.4316 4.67711 10.6 4.38238 10.8991L6.51912 13.0048C6.24997 13.278 5.88251 13.4317 5.49905 13.4317L5.49938 10.4317ZM4.38238 10.8991C4.08769 11.1981 3.92517 11.6028 3.93134 12.0228L6.93102 11.9786C6.93666 12.3621 6.78823 12.7318 6.51912 13.0048L4.38238 10.8991ZM3.93118 12.0009C3.93125 12.6375 4.31597 13.211 4.90514 13.4525L6.04292 10.6766C6.58026 10.8969 6.93112 11.42 6.93118 12.0005L3.93118 12.0009ZM4.90514 13.4525C5.49425 13.694 6.17086 13.5555 6.61775 13.102L4.481 10.9963C4.88857 10.5827 5.50565 10.4564 6.04292 10.6766L4.90514 13.4525ZM6.61775 13.102C7.06464 12.6486 7.19321 11.97 6.94318 11.3845L4.18421 12.5627C3.95617 12.0287 4.07343 11.4098 4.481 10.9963L6.61775 13.102ZM6.94318 11.3845C6.69314 10.799 6.11407 10.4226 5.47747 10.4318L5.52095 13.4315C4.94036 13.4399 4.41225 13.0967 4.18421 12.5627L6.94318 11.3845Z" fill="#212121" mask="url(#path-13-outside-7_90_349)"/>
<mask id="path-15-outside-8_90_349" maskUnits="userSpaceOnUse" x="3" y="3" width="5" height="5" fill="black">
<rect fill="white" x="3" y="3" width="5" height="5"/>
<path fill-rule="evenodd" clip-rule="evenodd" d="M5.49921 5.43119C5.48099 5.43118 5.46354 5.43849 5.45075 5.45146C5.43796 5.46444 5.43091 5.482 5.43118 5.50021C5.43119 5.52822 5.44811 5.55346 5.47403 5.56408C5.49995 5.5747 5.52972 5.56861 5.54938 5.54866C5.56904 5.52871 5.57469 5.49886 5.56369 5.4731C5.55269 5.44734 5.52722 5.43078 5.49921 5.43119Z"/>
</mask>
<path d="M5.49905 6.93119C6.32747 6.93128 6.99912 6.25978 6.99921 5.43135C6.9993 4.60292 6.3278 3.93128 5.49938 3.93119L5.49905 6.93119ZM5.45075 5.45146L4.38238 4.39857L4.38238 4.39857L5.45075 5.45146ZM5.43118 5.50021L6.93118 5.50005C6.93118 5.49275 6.93113 5.48544 6.93102 5.47814L5.43118 5.50021ZM5.47403 5.56408L4.90514 6.95201L4.90514 6.95201L5.47403 5.56408ZM5.56369 5.4731L4.18421 6.06219L4.18421 6.06219L5.56369 5.4731ZM5.47747 3.93134C4.64913 3.94335 3.98736 4.62459 3.99937 5.45293C4.01138 6.28127 4.69261 6.94304 5.52095 6.93103L5.47747 3.93134ZM5.49938 3.93119C5.07948 3.93114 4.67711 4.09951 4.38238 4.39857L6.51912 6.50435C6.24997 6.77747 5.88251 6.93123 5.49905 6.93119L5.49938 3.93119ZM4.38238 4.39857C4.08769 4.69759 3.92517 5.10235 3.93134 5.52227L6.93102 5.47814C6.93666 5.86165 6.78823 6.23129 6.51912 6.50435L4.38238 4.39857ZM3.93118 5.50037C3.93125 6.13696 4.31597 6.71052 4.90514 6.95201L6.04292 4.17615C6.58026 4.39639 6.93112 4.91949 6.93118 5.50005L3.93118 5.50037ZM4.90514 6.95201C5.49425 7.19348 6.17086 7.05502 6.61775 6.60155L4.481 4.49577C4.88857 4.08221 5.50565 3.95593 6.04292 4.17614L4.90514 6.95201ZM6.61775 6.60155C7.06464 6.14809 7.19321 5.46952 6.94318 4.88401L4.18421 6.06219C3.95617 5.52819 4.07343 4.90934 4.481 4.49577L6.61775 6.60155ZM6.94318 4.88401C6.69314 4.29849 6.11407 3.92212 5.47747 3.93134L5.52095 6.93103C4.94036 6.93944 4.41225 6.59618 4.18421 6.06219L6.94318 4.88401Z" fill="#212121" mask="url(#path-15-outside-8_90_349)"/>
<mask id="path-17-outside-9_90_349" maskUnits="userSpaceOnUse" x="3" y="16.0012" width="5" height="5" fill="black">
<rect fill="white" x="3" y="16.0012" width="5" height="5"/>
<path fill-rule="evenodd" clip-rule="evenodd" d="M5.49921 18.4324C5.48099 18.4324 5.46354 18.4397 5.45075 18.4527C5.43796 18.4657 5.43091 18.4832 5.43118 18.5014C5.43119 18.5294 5.44811 18.5547 5.47403 18.5653C5.49995 18.5759 5.52972 18.5698 5.54938 18.5499C5.56904 18.5299 5.57469 18.5001 5.56369 18.4743C5.55269 18.4486 5.52722 18.432 5.49921 18.4324Z"/>
</mask>
<path d="M5.49905 19.9324C6.32747 19.9325 6.99912 19.261 6.99921 18.4326C6.9993 17.6041 6.3278 16.9325 5.49938 16.9324L5.49905 19.9324ZM5.45075 18.4527L4.38238 17.3998L4.38238 17.3998L5.45075 18.4527ZM5.43118 18.5014L6.93118 18.5013C6.93118 18.494 6.93113 18.4867 6.93102 18.4794L5.43118 18.5014ZM5.47403 18.5653L4.90514 19.9532L4.90514 19.9532L5.47403 18.5653ZM5.56369 18.4743L4.18421 19.0634L4.18421 19.0634L5.56369 18.4743ZM5.47747 16.9326C4.64913 16.9446 3.98736 17.6258 3.99937 18.4541C4.01138 19.2825 4.69261 19.9443 5.52095 19.9322L5.47747 16.9326ZM5.49938 16.9324C5.07948 16.9324 4.67711 17.1007 4.38238 17.3998L6.51912 19.5056C6.24997 19.7787 5.88251 19.9324 5.49905 19.9324L5.49938 16.9324ZM4.38238 17.3998C4.08769 17.6988 3.92517 18.1036 3.93134 18.5235L6.93102 18.4794C6.93666 18.8629 6.78823 19.2325 6.51912 19.5056L4.38238 17.3998ZM3.93118 18.5016C3.93125 19.1382 4.31597 19.7117 4.90514 19.9532L6.04292 17.1774C6.58026 17.3976 6.93112 17.9207 6.93118 18.5013L3.93118 18.5016ZM4.90514 19.9532C5.49425 20.1947 6.17086 20.0562 6.61775 19.6028L4.481 17.497C4.88857 17.0834 5.50565 16.9571 6.04292 17.1774L4.90514 19.9532ZM6.61775 19.6028C7.06464 19.1493 7.19321 18.4707 6.94318 17.8852L4.18421 19.0634C3.95617 18.5294 4.07343 17.9106 4.481 17.497L6.61775 19.6028ZM6.94318 17.8852C6.69314 17.2997 6.11407 16.9233 5.47747 16.9326L5.52095 19.9322C4.94036 19.9407 4.41225 19.5974 4.18421 19.0634L6.94318 17.8852Z" fill="#212121" mask="url(#path-17-outside-9_90_349)"/>
</svg>
