<svg width="18" height="18" viewBox="0 0 18 18" fill="none" xmlns="http://www.w3.org/2000/svg">
<path d="M9 0C7.21997 0 5.47991 0.527841 3.99987 1.51677C2.51983 2.50571 1.36628 3.91131 0.685088 5.55585C0.00389957 7.20038 -0.17433 9.00998 0.172936 10.7558C0.520203 12.5016 1.37737 14.1053 2.63604 15.364C3.89471 16.6226 5.49836 17.4798 7.24419 17.8271C8.99002 18.1743 10.7996 17.9961 12.4442 17.3149C14.0887 16.6337 15.4943 15.4802 16.4832 14.0001C17.4722 12.5201 18 10.78 18 9C18 6.61305 17.0518 4.32387 15.364 2.63604C13.6761 0.948211 11.387 0 9 0ZM16.7143 8.35714H12.8571C12.7821 5.98955 12.1687 3.67017 11.0636 1.575C12.5862 1.99151 13.9444 2.86511 14.9549 4.07791C15.9654 5.29071 16.5795 6.78432 16.7143 8.35714ZM9 16.7143C8.85659 16.7239 8.7127 16.7239 8.56929 16.7143C7.23747 14.5904 6.49833 12.1488 6.42857 9.64286H11.5714C11.5075 12.147 10.775 14.5885 9.45 16.7143C9.30019 16.7248 9.14982 16.7248 9 16.7143ZM6.42857 8.35714C6.49253 5.853 7.22497 3.41153 8.55 1.28571C8.83624 1.25355 9.12519 1.25355 9.41143 1.28571C10.75 3.40765 11.4959 5.8494 11.5714 8.35714H6.42857ZM6.91715 1.575C5.81869 3.67177 5.21194 5.99107 5.14286 8.35714H1.28572C1.42053 6.78432 2.03461 5.29071 3.04508 4.07791C4.05556 2.86511 5.41378 1.99151 6.93643 1.575H6.91715ZM1.31786 9.64286H5.175C5.24209 12.0084 5.84664 14.3277 6.94286 16.425C5.42499 16.004 4.07236 15.1285 3.06679 13.916C2.06122 12.7036 1.4509 11.2124 1.31786 9.64286ZM11.0636 16.425C12.1687 14.3298 12.7821 12.0104 12.8571 9.64286H16.7143C16.5795 11.2157 15.9654 12.7093 14.9549 13.9221C13.9444 15.1349 12.5862 16.0085 11.0636 16.425Z" fill="#212121"/>
</svg>
